<?xml version="1.0" standalone="no"?><!DOCTYPE svg PUBLIC "-//W3C//DTD SVG 1.1//EN" "http://www.w3.org/Graphics/SVG/1.1/DTD/svg11.dtd"><svg t="1674375973303" class="icon" viewBox="0 0 1024 1024" version="1.1" xmlns="http://www.w3.org/2000/svg" p-id="2894" xmlns:xlink="http://www.w3.org/1999/xlink" width="200" height="200"><path d="M317.113333 582A233.22 233.22 0 0 1 298.666667 490.666667V277.333333a234.666667 234.666667 0 0 1 461.833333-59.086666L346.313333 632.433333a233.72 233.72 0 0 1-29.2-50.433333z m-61.866666 141.48l30.42-30.413333A318.506667 318.506667 0 0 1 213.333333 490.666667a21.333333 21.333333 0 0 0-42.666666 0 361.4 361.4 0 0 0 84.58 232.826666zM874.666667 469.333333a21.333333 21.333333 0 0 0-21.333334 21.333334c0 176.446667-143.553333 320-320 320a318.266667 318.266667 0 0 1-186.82-60.34l61.333334-61.333334A234.6 234.6 0 0 0 768 490.666667V328.84l121.753333-121.753333a21.333333 21.333333 0 1 0-30.173333-30.173334l-682.666667 682.666667a21.333333 21.333333 0 0 0 30.173334 30.173333l108.793333-108.793333A361.213333 361.213333 0 0 0 512 852.713333V938.666667H320a21.333333 21.333333 0 0 0 0 42.666666h426.666667a21.333333 21.333333 0 0 0 0-42.666666H554.666667v-85.953334A362.366667 362.366667 0 0 0 896 490.666667a21.333333 21.333333 0 0 0-21.333333-21.333334z" fill="#5C5C66" p-id="2895"></path></svg>