<?xml version="1.0" standalone="no"?><!DOCTYPE svg PUBLIC "-//W3C//DTD SVG 1.1//EN" "http://www.w3.org/Graphics/SVG/1.1/DTD/svg11.dtd"><svg t="1674374875682" class="icon" viewBox="0 0 1024 1024" version="1.1" xmlns="http://www.w3.org/2000/svg" p-id="976" xmlns:xlink="http://www.w3.org/1999/xlink" width="200" height="200"><path d="M146.285714 525.897143C146.285714 327.094857 310.784 164.571429 512 164.571429c199.204571 0 362.422857 159.305143 365.677714 355.364571l0.036572 5.961143v166.765714l-0.036572 0.512L877.714286 803.84c0 29.001143-22.454857 52.809143-51.126857 55.369143l-5.12 0.219428h-112.530286c-46.628571 0-84.406857-37.302857-84.406857-83.382857V650.971429c0-46.08 37.778286-83.382857 84.406857-83.382858h112.530286v-41.691428c0-168.082286-139.337143-305.737143-309.467429-305.737143-168.411429 0-306.651429 134.912-309.394286 300.690286l-0.073143 5.046857v41.691428h112.530286c46.628571 0 84.406857 37.302857 84.406857 83.382858v125.074285c0 46.08-37.778286 83.382857-84.406857 83.382857H202.532571A55.954286 55.954286 0 0 1 146.285714 803.84v-277.942857z m675.181715 97.28h-112.530286c-15.542857 0-28.16 12.434286-28.16 27.794286v125.074285c0 15.36 12.617143 27.794286 28.16 27.794286h112.530286v-180.662857z m-506.404572 0H202.532571v180.662857h112.530286c15.542857 0 28.16-12.434286 28.16-27.794286V650.971429l-0.256-3.766858a28.013714 28.013714 0 0 0-27.904-24.027428z" fill="#ffffff" p-id="977"></path><path d="M652.653714 331.337143c5.668571 0 10.934857 1.645714 15.323429 4.461714l1.572571 1.097143c56.758857 42.093714 88.027429 108.544 89.6 183.698286v5.668571H702.902857c0-58.88-22.381714-109.604571-63.268571-141.897143l-3.876572-2.998857a27.574857 27.574857 0 0 1-5.595428-38.948571 28.233143 28.233143 0 0 1 22.491428-11.081143z" fill="#ffffff" p-id="978"></path></svg>