<?xml version="1.0" standalone="no"?><!DOCTYPE svg PUBLIC "-//W3C//DTD SVG 1.1//EN" "http://www.w3.org/Graphics/SVG/1.1/DTD/svg11.dtd"><svg t="1674374980710" class="icon" viewBox="0 0 1024 1024" version="1.1" xmlns="http://www.w3.org/2000/svg" p-id="1715" xmlns:xlink="http://www.w3.org/1999/xlink" width="200" height="200"><path d="M689.956571 155.428571H334.043429a55.588571 55.588571 0 0 0-48.054858 27.574858l-177.92 306.029714a55.149714 55.149714 0 0 0 0 55.478857l177.92 305.993143a55.588571 55.588571 0 0 0 48.054858 27.611428h355.913142a55.588571 55.588571 0 0 0 48.054858-27.611428l177.92-305.993143a55.149714 55.149714 0 0 0 0-55.478857L738.011429 183.003429a55.588571 55.588571 0 0 0-48.054858-27.574858z m-355.913142 54.857143h355.913142c0.292571 0 0.512 0.146286 0.621715 0.292572l177.993143 306.176-177.993143 306.176c-0.109714 0.182857-0.365714 0.329143-0.621715 0.329143H334.043429c-0.292571 0-0.512-0.146286-0.621715-0.329143L155.428571 516.754286l177.993143-306.176c0.109714-0.146286 0.365714-0.292571 0.621715-0.292572z" fill="#ffffff" p-id="1716"></path><path d="M512 374.857143A137.142857 137.142857 0 0 0 374.857143 512l0.182857 7.241143A137.325714 137.325714 0 0 0 512 649.142857 137.142857 137.142857 0 0 0 649.142857 512l-0.182857-7.241143A137.325714 137.325714 0 0 0 512 374.857143z m0 54.857143a82.285714 82.285714 0 0 1 82.139429 77.421714l0.146285 5.668571c0 44.617143-36.827429 81.481143-82.285714 81.481143a82.285714 82.285714 0 0 1-82.139429-77.421714l-0.146285-5.668571c0-44.617143 36.827429-81.481143 82.285714-81.481143z" fill="#ffffff" p-id="1717"></path></svg>