<?xml version="1.0" standalone="no"?><!DOCTYPE svg PUBLIC "-//W3C//DTD SVG 1.1//EN" "http://www.w3.org/Graphics/SVG/1.1/DTD/svg11.dtd"><svg t="1674375070973" class="icon" viewBox="0 0 1024 1024" version="1.1" xmlns="http://www.w3.org/2000/svg" p-id="921" xmlns:xlink="http://www.w3.org/1999/xlink" width="200" height="200"><path d="M625.92 115.008a30.848 30.848 0 0 0-17.408 5.312L253.952 352H90.048a16 16 0 0 0-16 16v288c0 8.768 7.232 16 16 16H254.08l354.496 231.68a31.872 31.872 0 0 0 49.472-26.752V147.072a32 32 0 0 0-32.064-32.064z m-39.936 688l-292.608-191.36-17.92-11.648H145.92v-176h129.408l17.92-11.712 292.672-191.296v582.016z m348.032-327.04h-128a16 16 0 0 0-16 16v40c0 8.832 7.168 16 16 16h128a16 16 0 0 0 16-16v-39.936a16 16 0 0 0-16-16z m-41.92 261.824l-110.272-63.68a15.936 15.936 0 0 0-21.76 5.888l-19.84 34.56a16 16 0 0 0 5.76 21.76l110.336 63.68a15.936 15.936 0 0 0 21.76-5.888l19.84-34.56a16.064 16.064 0 0 0-5.76-21.76z m-132.096-393.792a15.936 15.936 0 0 0 21.76 5.888l110.272-63.68a16 16 0 0 0 5.76-21.76l-19.84-34.432a15.936 15.936 0 0 0-21.632-5.888l-110.336 63.68a16 16 0 0 0-5.76 21.76l19.776 34.432z" fill="#ffffff" p-id="922"></path></svg>